<?xml version="1.0" encoding="utf-8"?>
<!-- Generator: Adobe Illustrator 22.1.0, SVG Export Plug-In . SVG Version: 6.00 Build 0)  -->
<svg version="1.1" id="Layer_1" xmlns="http://www.w3.org/2000/svg" xmlns:xlink="http://www.w3.org/1999/xlink" x="0px" y="0px"
	 viewBox="0 0 161.3 147.5" style="enable-background:new 0 0 161.3 147.5;" xml:space="preserve">
<style type="text/css">
	.st0{fill:#FF0000;}
</style>
<g>
	<path class="st0" d="M157.2,88.7l-30.2-4.1l-14.8-26c-4.1-7-11.6-11.4-19.5-11.4H53.2c-9.5,0-18,5.9-21.2,14.8l-8,22.1L3.9,88.4
		C1.5,88.9,0,90.9,0,93.3V122c0,2.7,2.2,4.9,4.9,4.9h11.9c0.8,11.6,10.5,20.6,22.3,20.6s21.4-9.2,22.3-20.6h38.6
		c0.8,11.6,10.5,20.6,22.3,20.6s21.4-9.2,22.3-20.6h11.9c2.7,0,4.9-2.2,4.9-4.9V93.6C161.4,91.1,159.6,89,157.2,88.7z M39.1,137
		c-6.5,0-11.7-5.3-11.7-11.7s5.3-11.7,11.7-11.7s11.7,5.3,11.7,11.7S45.7,137,39.1,137z M40.3,83.9c-0.7,0-1.2-0.7-1-1.4L45,67
		c1.2-3.4,4.4-5.6,8-5.6h7c0.5,0,1,0.3,1,0.8l1.9,20.7c0,0.5-0.3,1-1,1H40.3z M77.3,83.1l-1.9-20.7c0-0.5,0.3-1,1-1h16.1
		c3.1,0,5.9,1.7,7.5,4.2l9.7,16.8c0.3,0.7-0.2,1.5-0.8,1.5H78.2C77.7,83.9,77.3,83.6,77.3,83.1z M122.3,137
		c-6.5,0-11.7-5.3-11.7-11.7s5.3-11.7,11.7-11.7c6.5,0,11.7,5.3,11.7,11.7S128.8,137,122.3,137z"/>
	<path class="st0" d="M47.1,35.2c7.6,0,13.9-4.8,16.5-11.6h5.6c0.2,0,0.5,0.2,0.7,0.2l3.2,2.9c0.3,0.3,0.7,0.3,1,0l4.8-4.2
		c0.3-0.3,0.7-0.3,1,0l4.8,4.2c0.3,0.3,0.7,0.3,1,0l4.8-4.2c0.3-0.3,0.7-0.3,1,0l4.8,4.2c0.3,0.3,0.7,0.3,1,0l3.2-2.9
		c0.2-0.2,0.3-0.2,0.7-0.2h3.9c0.3,0,0.7-0.2,0.8-0.3l4.1-5.1c0.3-0.3,0.3-0.8,0-1.4l-4.1-5.1c-0.2-0.2-0.5-0.3-0.8-0.3H63.6
		C61,4.8,54.5,0,47.1,0c-9.7,0-17.7,7.8-17.7,17.7S37.4,35.2,47.1,35.2z M40.3,13.6c2.2,0,3.9,1.9,3.9,3.9c0,2.2-1.9,3.9-3.9,3.9
		c-2.2,0-3.9-1.9-3.9-3.9C36.4,15.3,38.1,13.6,40.3,13.6z"/>
</g>
</svg>
