<?xml version="1.0" encoding="utf-8"?>
<!-- Generator: Adobe Illustrator 22.1.0, SVG Export Plug-In . SVG Version: 6.00 Build 0)  -->
<svg version="1.1" id="Layer_1" xmlns="http://www.w3.org/2000/svg" xmlns:xlink="http://www.w3.org/1999/xlink" x="0px" y="0px"
	 viewBox="0 0 119 122" style="enable-background:new 0 0 119 122;" xml:space="preserve">
<style type="text/css">
	.st0{fill:#FF0000;}
</style>
<path class="st0" d="M116,71.7l-9.6-7.5c0.1-1,0.1-2.1,0.1-3.2s0-2.2-0.1-3.2l9.6-7.5c3.1-2.4,3.9-6.8,1.9-10.2l-11.2-19.3
	c-1.9-3.3-6-4.8-9.6-3.5H97l-11.3,4.6c-1.8-1.2-3.6-2.3-5.5-3.2L78.4,6.8C77.9,2.9,74.6,0,70.7,0H48.3c-3.9,0-7.2,2.8-7.8,6.7
	l-1.7,12.1c-1.9,0.9-3.7,2-5.5,3.2l-11.4-4.6c-3.6-1.4-7.8,0-9.7,3.4L1.1,40.1c-2,3.4-1.2,7.7,1.9,10.2l9.6,7.5
	c-0.1,1.1-0.1,2.2-0.1,3.2c0,1,0,2.1,0.1,3.2L3,71.7c-3,2.4-3.8,6.6-2,10v0.1l11.1,19.2c1.9,3.4,6,4.9,9.6,3.6h0.2l11.3-4.6
	c1.8,1.2,3.6,2.3,5.5,3.2l1.7,12c0.5,3.9,3.9,6.8,7.9,6.7h22.4c3.9,0,7.2-2.8,7.8-6.7l1.7-12.1c1.9-0.9,3.7-2,5.5-3.2l11.4,4.6
	c3.6,1.4,7.8-0.1,9.7-3.5l11.1-19.4C119.8,78.4,119,74.1,116,71.7z M98.9,94.4l-12-4.8c-1.6-0.7-3.5-0.4-4.9,0.6
	c-2.6,2-5.4,3.6-8.3,4.8c-1.7,0.7-2.8,2.2-3.1,4l-1.8,12.8H50.3L48.5,99c-0.3-1.8-1.4-3.3-3.1-4c-3-1.2-5.8-2.8-8.3-4.8
	c-1.4-1.1-3.3-1.4-5-0.7l-12,4.8l-9.2-15.9l10.2-8c1.4-1.1,2.1-2.9,1.9-4.6c-0.2-1.6-0.3-3.2-0.3-4.8c0-1.6,0.1-3.2,0.4-4.9
	c0.2-1.8-0.5-3.5-1.9-4.6l-10.2-8l9.2-15.9l12,4.8c1.7,0.7,3.5,0.4,4.9-0.7c2.6-2,5.4-3.6,8.3-4.8c1.7-0.7,2.8-2.2,3.1-4l1.8-12.8
	h18.4L70.5,23c0.3,1.8,1.4,3.3,3.1,4c3,1.2,5.8,2.8,8.3,4.8c1.4,1.1,3.3,1.4,5,0.7l12-4.8l9.2,15.9l-10.2,8
	c-1.4,1.1-2.1,2.9-1.9,4.6c0.2,1.6,0.3,3.2,0.3,4.8c0,1.6-0.1,3.2-0.4,4.9c-0.2,1.8,0.5,3.5,1.9,4.6l10.2,8L98.9,94.4z"/>
<path class="st0" d="M59.5,30.4c-16.9,0-30.6,13.7-30.6,30.6c0,16.9,13.7,30.6,30.6,30.6c16.9,0,30.6-13.7,30.6-30.6
	C90.1,44.1,76.4,30.4,59.5,30.4z M59.5,81.4C48.2,81.4,39,72.3,39,61s9.2-20.4,20.4-20.4c11.3,0,20.4,9.2,20.4,20.4
	C79.9,72.3,70.8,81.4,59.5,81.4z"/>
</svg>
